<svg width="25" height="14" viewBox="0 0 25 14" fill="none" xmlns="http://www.w3.org/2000/svg">
<path d="M3.29558 11.9543C2.6692 13.0977 2.17489 14 1.32237 14C0.92212 14 0.201676 13.7276 0.0295701 11.9044C-0.091913 10.155 0.161913 8.39942 0.772733 6.76431C1.38355 5.1292 2.33614 3.65534 3.56175 2.44906C3.66917 2.35576 3.79746 2.29204 3.93481 2.26376C4.07216 2.23549 4.21415 2.24357 4.3477 2.28726C4.48125 2.33096 4.60208 2.40886 4.69904 2.51379C4.79601 2.61873 4.866 2.74732 4.90258 2.88773L6.25741 7.68815C6.32092 7.91434 6.30858 8.15625 6.22241 8.3742C6.13623 8.59215 5.98134 8.77322 5.78312 8.88773C4.70418 9.65961 3.84498 10.7188 3.29558 11.9543Z" fill="#535867"/>
<path d="M24.971 11.9044C24.7988 13.7276 24.0864 14 23.6782 14C22.8256 14 22.3313 13.0977 21.7049 11.9543C21.1554 10.7189 20.2962 9.65976 19.2174 8.88773C19.0188 8.77314 18.8636 8.59172 18.7774 8.37332C18.6912 8.15493 18.6791 7.91255 18.7431 7.68607L20.1059 2.82536V2.79626C20.1393 2.667 20.2031 2.54844 20.2918 2.45137C20.3805 2.3543 20.4911 2.28181 20.6136 2.24049C20.7361 2.19917 20.8666 2.19032 20.9933 2.21477C21.1199 2.23922 21.2387 2.29617 21.3387 2.38046C22.5938 3.58261 23.5721 5.06305 24.2009 6.71184C24.8297 8.36064 25.0929 10.1354 24.971 11.9044Z" fill="#535867"/>
<path d="M18.1848 2.27651L16.4217 8.51351C16.3291 8.8921 16.1197 9.22877 15.8255 9.47205C15.5314 9.71533 15.1686 9.85184 14.7927 9.86071H10.2078C9.82936 9.85424 9.46365 9.71742 9.1681 9.47172C8.87255 9.22602 8.66388 8.88533 8.57484 8.50312L6.82376 2.30353C6.69614 1.86189 6.72414 1.38746 6.90274 0.965325C7.08134 0.543187 7.39886 0.200954 7.79836 0H17.2042C17.5992 0.199122 17.914 0.536488 18.0933 0.952825C18.2727 1.36916 18.305 1.83784 18.1848 2.27651Z" fill="#535867"/>
</svg>
