<svg width="24" height="24" viewBox="0 0 24 24" fill="none" xmlns="http://www.w3.org/2000/svg">
<path d="M0.5 15H23.5C23.6006 14.9999 23.6989 14.9694 23.7819 14.9126C23.865 14.8557 23.9289 14.7752 23.9654 14.6814C24.0019 14.5876 24.0093 14.485 23.9866 14.387C23.9638 14.289 23.9121 14.2001 23.838 14.132L17.162 7.98796C17.1316 7.95972 17.0947 7.93948 17.0545 7.92907C17.0144 7.91866 16.9723 7.9184 16.932 7.92832C16.8917 7.93824 16.8545 7.95803 16.8238 7.9859C16.7931 8.01377 16.7698 8.04884 16.756 8.08796C16.5478 8.7348 16.2101 9.33251 15.7636 9.84475C15.3171 10.357 14.7711 10.773 14.1588 11.0676C13.5464 11.3622 12.8805 11.5291 12.2016 11.5582C11.5227 11.5873 10.845 11.478 10.2097 11.2369C9.57435 10.9959 8.99471 10.6281 8.506 10.1559C8.01729 9.68379 7.62974 9.11717 7.36692 8.49053C7.1041 7.8639 6.97149 7.19035 6.97718 6.51085C6.98287 5.83135 7.12672 5.16011 7.4 4.53796C7.4205 4.4898 7.42536 4.43642 7.41391 4.38535C7.40245 4.33428 7.37526 4.28809 7.33616 4.2533C7.29705 4.2185 7.24802 4.19686 7.19596 4.19142C7.1439 4.18598 7.09145 4.19701 7.046 4.22296C3.912 5.99996 0 9.26696 0 14.5C0 14.6326 0.0526784 14.7597 0.146447 14.8535C0.240215 14.9473 0.367392 15 0.5 15Z" fill="#535867"/>
<path d="M12.0101 9.47898C12.6511 9.47941 13.2753 9.27372 13.7906 8.89227C14.3058 8.51083 14.6848 7.97383 14.8715 7.36055C15.0582 6.74727 15.0428 6.09022 14.8275 5.48636C14.6123 4.88251 14.2086 4.36386 13.676 4.00698C13.6213 3.96978 13.5744 3.92207 13.5382 3.86661C13.502 3.81116 13.4772 3.74907 13.4652 3.68395C13.4532 3.61882 13.4543 3.55196 13.4683 3.48725C13.4824 3.42254 13.5091 3.36126 13.547 3.30698C13.7956 2.95846 14.1108 2.66263 14.4743 2.43659C14.8378 2.21054 15.2425 2.05875 15.6651 1.98998C15.7944 1.96812 15.9181 1.92083 16.0291 1.85084C16.14 1.78085 16.236 1.68955 16.3114 1.58223C16.3868 1.47491 16.4402 1.35369 16.4685 1.2256C16.4967 1.0975 16.4993 0.965075 16.476 0.835978C16.4306 0.573338 16.2828 0.339437 16.0652 0.185541C15.8476 0.0316449 15.5778 -0.0296908 15.315 0.0149777C14.4328 0.162355 13.6033 0.534083 12.9062 1.09447C12.209 1.65485 11.6676 2.38506 11.334 3.21498C11.2366 3.45671 11.0485 3.65083 10.8101 3.75598C10.1816 4.03174 9.66715 4.5153 9.35304 5.12549C9.03893 5.73568 8.9443 6.43536 9.08502 7.10707C9.22574 7.77877 9.59325 8.38163 10.1259 8.81443C10.6585 9.24724 11.3238 9.48365 12.0101 9.48398V9.47898Z" fill="#535867"/>
<path d="M23.5 21H0.5C0.367392 21 0.240215 21.0527 0.146447 21.1464C0.0526784 21.2402 0 21.3674 0 21.5L0 22C0 22.5304 0.210714 23.0391 0.585786 23.4142C0.960859 23.7893 1.46957 24 2 24H22C22.5304 24 23.0391 23.7893 23.4142 23.4142C23.7893 23.0391 24 22.5304 24 22V21.5C24 21.3674 23.9473 21.2402 23.8536 21.1464C23.7598 21.0527 23.6326 21 23.5 21Z" fill="#535867"/>
<path d="M23.5 16.4979H0.5C0.223858 16.4979 0 16.7218 0 16.9979V18.9979C0 19.2741 0.223858 19.4979 0.5 19.4979H23.5C23.7761 19.4979 24 19.2741 24 18.9979V16.9979C24 16.7218 23.7761 16.4979 23.5 16.4979Z" fill="#535867"/>
</svg>
