<svg width="20" height="24" viewBox="0 0 20 24" fill="none" xmlns="http://www.w3.org/2000/svg">
<path d="M4.94703 22.741V22.75C5.00631 23.1007 5.18828 23.419 5.46047 23.6479C5.73266 23.8769 6.07735 24.0017 6.43303 24H13.567C13.9243 24.0002 14.27 23.8732 14.5423 23.6418C14.8145 23.4104 14.9956 23.0897 15.053 22.737L16.785 11.442C16.8032 11.3242 16.8628 11.2167 16.9532 11.1389C17.0436 11.0612 17.1588 11.0183 17.278 11.018H18.49C18.7552 11.018 19.0096 10.9127 19.1971 10.7251C19.3847 10.5376 19.49 10.2832 19.49 10.018C19.49 9.75281 19.3847 9.49846 19.1971 9.31092C19.0096 9.12339 18.7552 9.01803 18.49 9.01803H17.335C17.2199 9.01782 17.1084 8.97792 17.0194 8.90504C16.9303 8.83217 16.8691 8.7308 16.846 8.61803C16.5162 6.97407 15.6022 5.50517 14.273 4.48303C14.1701 4.39473 14.0503 4.32828 13.9209 4.28773C13.7915 4.24718 13.6553 4.23336 13.5204 4.24712C13.3855 4.26089 13.2548 4.30194 13.1362 4.36779C13.0177 4.43364 12.9138 4.52291 12.8308 4.63017C12.7479 4.73743 12.6876 4.86044 12.6537 4.99173C12.6197 5.12301 12.6129 5.25982 12.6335 5.39385C12.6541 5.52787 12.7017 5.65631 12.7735 5.77135C12.8453 5.88639 12.9397 5.98562 13.051 6.06303C13.8143 6.6488 14.3916 7.44315 14.713 8.35003C14.7394 8.4254 14.7473 8.50598 14.7361 8.58504C14.7249 8.66409 14.695 8.73932 14.6488 8.80443C14.6026 8.86954 14.5414 8.92263 14.4705 8.95927C14.3996 8.99591 14.3209 9.01503 14.241 9.01503H11.925C11.8509 9.01504 11.7777 8.99857 11.7107 8.96679C11.6437 8.93501 11.5846 8.88873 11.5377 8.8313C11.4908 8.77386 11.4572 8.70672 11.4395 8.63472C11.4217 8.56273 11.4202 8.48768 11.435 8.41503L12.583 2.63603C12.5984 2.56049 12.631 2.48952 12.6783 2.42867C12.7256 2.36781 12.7863 2.31872 12.8557 2.28522C12.9251 2.25172 13.0014 2.23472 13.0784 2.23556C13.1555 2.23639 13.2314 2.25503 13.3 2.29003L16.55 3.91503C16.668 3.98054 16.798 4.02149 16.9322 4.03542C17.0665 4.04935 17.2021 4.03598 17.331 3.9961C17.4599 3.95622 17.5794 3.89066 17.6824 3.80337C17.7853 3.71608 17.8694 3.60886 17.9298 3.48818C17.9902 3.3675 18.0255 3.23584 18.0337 3.10115C18.0418 2.96645 18.0226 2.8315 17.9772 2.70442C17.9318 2.57734 17.8612 2.46076 17.7696 2.3617C17.6779 2.26265 17.5672 2.18316 17.444 2.12803L13.6 0.210028C13.3257 0.0739701 13.0239 0.00270307 12.7177 0.00171931C12.4115 0.000735548 12.1092 0.0700614 11.8341 0.204354C11.5589 0.338647 11.3183 0.534321 11.1307 0.776297C10.9431 1.01827 10.8135 1.30009 10.752 1.60003V1.60703L9.36303 8.61303C9.33998 8.72596 9.27861 8.82747 9.18932 8.90036C9.10003 8.97325 8.9883 9.01305 8.87303 9.01303H5.76103C5.68116 9.01293 5.60247 8.99369 5.53155 8.95693C5.46064 8.92016 5.39957 8.86695 5.35344 8.80173C5.30732 8.73652 5.2775 8.6612 5.26647 8.58209C5.25543 8.50298 5.26351 8.42237 5.29003 8.34703C5.56219 7.57498 6.02018 6.88178 6.62359 6.32859C7.22701 5.77541 7.9573 5.37923 8.75003 5.17503C8.99781 5.10085 9.2072 4.93357 9.33426 4.70829C9.46132 4.48301 9.49615 4.21727 9.43144 3.96685C9.36674 3.71644 9.20753 3.50084 8.98724 3.36531C8.76695 3.22979 8.50272 3.18488 8.25003 3.24003C6.98287 3.56835 5.8336 4.24648 4.93354 5.19694C4.03347 6.1474 3.4189 7.33187 3.16003 8.61503C3.13701 8.7278 3.0758 8.82917 2.98671 8.90204C2.89762 8.97492 2.78613 9.01482 2.67103 9.01503H1.50903C1.24382 9.01503 0.989463 9.12039 0.801926 9.30792C0.61439 9.49546 0.509033 9.74981 0.509033 10.015C0.509033 10.2802 0.61439 10.5346 0.801926 10.7221C0.989463 10.9097 1.24382 11.015 1.50903 11.015H2.72103C2.84027 11.0153 2.95547 11.0582 3.04587 11.1359C3.13627 11.2137 3.19591 11.3212 3.21403 11.439L4.94703 22.741ZM14.247 11.013C14.3191 11.0131 14.3903 11.0287 14.4558 11.0588C14.5213 11.0889 14.5795 11.1328 14.6264 11.1875C14.6733 11.2422 14.7078 11.3064 14.7276 11.3757C14.7474 11.445 14.752 11.5178 14.741 11.589L14.433 13.589C14.4147 13.7069 14.3548 13.8143 14.2642 13.8918C14.1736 13.9694 14.0583 14.012 13.939 14.012H10.964C10.8905 14.012 10.8179 13.9957 10.7514 13.9644C10.6849 13.9331 10.6261 13.8875 10.5792 13.8309C10.5323 13.7743 10.4985 13.708 10.4801 13.6368C10.4618 13.5656 10.4594 13.4913 10.473 13.419L10.856 11.419C10.8779 11.3048 10.9389 11.2018 11.0285 11.1277C11.1181 11.0536 11.2308 11.013 11.347 11.013H14.247ZM8.40003 13.605C8.37698 13.718 8.31562 13.8195 8.22632 13.8924C8.13703 13.9653 8.0253 14.0051 7.91003 14.005H6.06103C5.94178 14.005 5.82645 13.9624 5.73586 13.8848C5.64528 13.8073 5.5854 13.6999 5.56703 13.582L5.25903 11.582C5.24808 11.5108 5.25265 11.438 5.27244 11.3687C5.29223 11.2994 5.32677 11.2352 5.37369 11.1805C5.42061 11.1258 5.4788 11.0819 5.54427 11.0518C5.60975 11.0217 5.68096 11.0061 5.75303 11.006H8.30003C8.37357 11.0062 8.44616 11.0226 8.51265 11.054C8.57913 11.0854 8.63786 11.1311 8.68465 11.1879C8.73145 11.2446 8.76515 11.3109 8.78337 11.3822C8.80158 11.4534 8.80386 11.5278 8.79003 11.6L8.40003 13.605Z" fill="#535867"/>
</svg>
