<svg width="212" height="28" viewBox="0 0 212 28" fill="none" xmlns="http://www.w3.org/2000/svg">
<path d="M0 22.324V18.4165L4.23347 19.4841C4.23347 19.4841 8.94716 20.7057 8.94716 24.54V27.9998L4.23347 26.8322C4.23347 26.8322 0 25.8837 0 22.324Z" fill="#FCB24C"/>
<path d="M0 13.094V9.1865L4.23347 10.2541C4.23347 10.2541 8.94716 11.4757 8.94716 15.3095V18.7693L4.23347 17.6022C4.23347 17.6022 0 16.6537 0 13.094Z" fill="#FCB24C"/>
<path d="M0 3.90797V0.000956535L4.23347 1.06807C4.23347 1.06807 8.94716 2.29014 8.94716 6.12396V9.58374L4.23347 8.41668C4.23347 8.41668 0 7.4682 0 3.90797Z" fill="#FCB24C"/>
<path d="M17.6943 24H15.0871V15.5601H17.7755C22.2573 15.5601 23.3165 17.8402 23.3165 19.7604C23.3165 21.5599 22.3792 24 17.6943 24ZM15.0871 4.00058H16.5534C17.5313 4.00058 21.0352 4.08084 21.0352 7.92072C21.0352 12.0408 17.3683 12.0408 16.3904 12.0408H15.0871V4.00058ZM22.7463 12.9206C24.9052 11.2806 25.2718 9.36036 25.2718 7.80058C25.2718 4.60027 23.7648 2.6412 22.0537 1.48122C19.772 -0.0790653 17.2871 0.00069046 15.0053 0.00069046H10.687V27.9999H17.246C19.283 27.9999 22.3792 28.0398 24.8646 26.0399C27.1865 24.1596 27.7165 21.3197 27.7165 19.6801C27.7165 17.08 26.3314 14.0003 22.7463 12.9206Z" fill="#FCB24C"/>
<path d="M64.9503 0.000745773H60.5503V28H73.2615V24.0001H64.9503V0.000745773Z" fill="#FCB24C"/>
<path d="M89.9824 24.1538C84.1849 24.1538 80.1108 19.9611 80.1108 14.039C80.1108 8.07701 84.1849 3.84694 89.9824 3.84694C95.7799 3.84694 99.854 8.07701 99.854 14.039C99.854 19.9611 95.7799 24.1538 89.9824 24.1538ZM89.9824 0.000501633C81.7952 0.000501633 75.7236 6.11594 75.7236 14.039C75.7236 21.8843 81.7561 27.9998 89.9824 27.9998C98.2087 27.9998 104.241 21.8843 104.241 14.039C104.241 6.11594 98.1697 0.000501633 89.9824 0.000501633Z" fill="#FCB24C"/>
<path d="M112.388 3.57763C109.097 6.65478 108.001 10.6158 108.001 14.1155C108.001 18.5 109.724 21.769 112.388 24.2692C115.913 27.5386 119.752 28 122.103 28C126.216 28 128.763 26.4998 129.624 25.9617V21.0385C126.53 23.9234 123.514 24.1541 122.22 24.1541C116.423 24.1541 112.388 19.8463 112.388 14.1155C112.388 8.19285 116.266 3.84668 122.22 3.84668C123.709 3.84668 126.725 4.07737 129.624 6.84711V2.00069C127.94 0.885628 125.825 0.000745773 122.299 0.000745773C118.538 0.000745773 115.248 0.885628 112.388 3.57763Z" fill="#FCB24C"/>
<path d="M152.375 10.9606H140.234V0.000743866H135.834V28H140.234V14.9605H152.375V28H156.775V0.000743866H152.375V10.9606Z" fill="#FCB24C"/>
<path d="M184.395 0.000745773H178.691L167.692 11.1605V0.000745773H163.292V28H167.692V14.5607L178.691 28H184.477L171.521 12.6804L184.395 0.000745773Z" fill="#FCB24C"/>
<path d="M194.889 17.784L199.051 8.85488L203.059 17.784H194.889ZM199.206 0.00100327L185.794 27.9998H190.264L193.232 21.5673H204.678L207.53 27.9998H212L199.206 0.00100327Z" fill="#FCB24C"/>
<path d="M36.7578 0.000745773V16.549C36.7578 18.0391 36.7979 19.8432 37.5963 21.2945C38.4354 22.7846 40.1928 24.0783 42.7887 24.0783C44.9461 24.0783 46.943 23.2157 47.9816 21.2945C48.78 19.8039 48.8201 18.1179 48.8201 16.549V0.000745773H53.1338V17.6474C53.1338 19.8432 52.6546 22.4706 50.5374 24.7845C49.0597 26.3918 46.6232 28 42.7887 28C38.9542 28 36.5182 26.3918 35.0405 24.7845C32.9233 22.4706 32.4441 19.8432 32.4441 17.6474V0.000745773H36.7578Z" fill="#FCB24C"/>
</svg>
